<svg width="68" height="80" viewBox="0 0 68 80" fill="none" xmlns="http://www.w3.org/2000/svg">
<path fill-rule="evenodd" clip-rule="evenodd" d="M37.7396 17.5732C32.2947 17.5732 27.8647 22.0026 27.8647 27.4481C27.8647 32.8931 32.2947 37.323 37.7396 37.323C43.1846 37.323 47.6145 32.8931 47.6145 27.4481C47.6145 22.0032 43.1846 17.5732 37.7396 17.5732ZM37.7396 32.6355C34.8795 32.6355 32.5522 30.3082 32.5522 27.4481C32.5522 24.5874 34.8795 22.2607 37.7396 22.2607C40.5997 22.2607 42.927 24.5874 42.927 27.4481C42.927 30.3082 40.5997 32.6355 37.7396 32.6355Z" fill="#A78364"/>
<path fill-rule="evenodd" clip-rule="evenodd" d="M37.7395 14.7291C39.0341 14.7291 40.0833 13.6799 40.0833 12.3854V9.875C40.0833 8.58044 39.0341 7.53125 37.7395 7.53125C36.4449 7.53125 35.3958 8.58044 35.3958 9.875V12.3854C35.3958 13.6799 36.4449 14.7291 37.7395 14.7291Z" fill="#A78364"/>
<path fill-rule="evenodd" clip-rule="evenodd" d="M37.7395 40.167C36.4449 40.167 35.3958 41.2162 35.3958 42.5107V45.0211C35.3958 46.3157 36.4449 47.3649 37.7395 47.3649C39.0341 47.3649 40.0833 46.3157 40.0833 45.0211V42.5107C40.0833 41.2162 39.0341 40.167 37.7395 40.167Z" fill="#A78364"/>
<path fill-rule="evenodd" clip-rule="evenodd" d="M52.8018 25.1045C51.5078 25.1045 50.458 26.1537 50.458 27.4482C50.458 28.7422 51.5078 29.792 52.8018 29.792H55.3121C56.6067 29.792 57.6559 28.7422 57.6559 27.4482C57.6559 26.1537 56.6067 25.1045 55.3121 25.1045H52.8018Z" fill="#A78364"/>
<path fill-rule="evenodd" clip-rule="evenodd" d="M25.0205 27.4482C25.0205 26.1537 23.9713 25.1045 22.6768 25.1045H20.167C18.8724 25.1045 17.8232 26.1537 17.8232 27.4482C17.8232 28.7422 18.8724 29.792 20.167 29.792H22.6768C23.9713 29.792 25.0205 28.7422 25.0205 27.4482Z" fill="#A78364"/>
<path fill-rule="evenodd" clip-rule="evenodd" d="M50.0474 18.4536L51.8223 16.6787C52.7372 15.7631 52.7372 14.2794 51.8217 13.3638C50.9068 12.4489 49.4224 12.4489 48.5075 13.3645L46.7326 15.1394C45.8177 16.0549 45.8177 17.5387 46.7326 18.4542C47.6481 19.3691 49.1319 19.3691 50.0474 18.4536Z" fill="#A78364"/>
<path fill-rule="evenodd" clip-rule="evenodd" d="M25.4318 36.4415L23.6569 38.2164C22.7413 39.132 22.742 40.6157 23.6569 41.5313C24.5718 42.4462 26.0562 42.4462 26.9717 41.5313L28.7466 39.7557C29.6615 38.8402 29.6615 37.3564 28.746 36.4415C27.8311 35.526 26.3467 35.526 25.4318 36.4415Z" fill="#A78364"/>
<path fill-rule="evenodd" clip-rule="evenodd" d="M50.0474 36.4415C49.1319 35.526 47.6481 35.526 46.7326 36.4415C45.8177 37.3564 45.8177 38.8402 46.7326 39.7557L48.5075 41.5313C49.4242 42.4474 50.908 42.445 51.8217 41.5313C52.7372 40.6157 52.7372 39.132 51.8223 38.2164L50.0474 36.4415Z" fill="#A78364"/>
<path fill-rule="evenodd" clip-rule="evenodd" d="M25.4318 18.4536C26.3485 19.3703 27.8323 19.3679 28.746 18.4542C29.6615 17.5387 29.6615 16.0549 28.7466 15.1394L26.9717 13.3645C26.0562 12.4489 24.5724 12.4489 23.6569 13.3638C22.742 14.2794 22.7413 15.7631 23.6569 16.6787L25.4318 18.4536Z" fill="#A78364"/>
<path fill-rule="evenodd" clip-rule="evenodd" d="M67.6975 32.7551C67.6975 2.87048 41.4536 0 37.009 0C20.0364 0 9.03662 14.7406 9.03662 26.2341V30.4095C7.6438 32.1997 3.66431 37.3163 1.77039 39.7516C0.790161 41.012 0.25 42.5854 0.25 44.1821C0.25 47.1796 2.0481 49.8364 4.83252 50.9515L7.01819 51.8256L10.5588 61.7389C12.3142 66.6553 17.0017 69.9585 22.2227 69.9585H25.8677L27.9343 78.2251C28.1956 79.2682 29.1331 80 30.2085 80H60.333C61.0685 80 61.7618 79.6545 62.2044 79.0674C62.6475 78.4808 62.7891 77.7197 62.587 77.0123L57.8001 60.2576L65.5729 42.7679C66.9828 39.5947 67.6975 36.2262 67.6975 32.7551ZM61.2894 40.8643L53.1705 59.1315C52.9478 59.6338 52.9081 60.1984 53.0588 60.7269L57.2263 75.3125H32.0383L29.9717 67.0459C29.7111 66.0028 28.7736 65.271 27.6981 65.271H22.2227C18.9774 65.271 16.0642 63.2178 14.9729 60.1624L11.077 49.2535C10.8512 48.6206 10.3641 48.1146 9.73975 47.8656L6.57385 46.5991C4.95032 45.9491 4.44251 43.9502 5.47034 42.63C7.44666 40.0879 11.6923 34.6295 12.9032 33.0725C13.4324 32.3914 13.7241 31.5417 13.7241 30.6799V26.2341C13.7241 19.9384 20.394 4.6875 37.0115 4.6875C40.6931 4.6875 63.01 6.92688 63.01 32.7551C63.01 35.5664 62.4314 38.2947 61.2894 40.8643Z" fill="#A78364"/>
</svg>
