<svg width="80" height="71" viewBox="0 0 80 71" fill="none" xmlns="http://www.w3.org/2000/svg">
<path d="M34.2236 24.7488C35.3186 25.032 36.3593 25.2236 37.2797 25.3555C38.689 25.5581 39.8187 25.6161 40.4315 25.6319C41.0468 25.6191 41.8439 25.5788 42.7533 25.4769C46.0516 25.1101 50.8423 23.9443 53.9044 20.3988C58.8501 14.6737 57.0001 5.39269 56.919 5.00023L56.5546 3.2412L54.7608 3.13622C54.389 3.11302 46.2201 2.69738 41.0938 7.21581C40.9424 6.99242 40.7813 6.77391 40.6128 6.55968C35.4065 -0.0571413 24.8346 -0.00282014 24.386 0.000231609L22.5891 0.0222043L22.1436 1.76476C22.0343 2.1975 19.4922 12.4599 24.6967 19.0786C27.2046 22.2659 30.9577 23.9065 34.2236 24.7488ZM43.5095 11.4193C45.8563 8.70506 50.1032 8.01598 52.5702 7.85179C52.7673 10.3194 52.7014 14.6206 50.3577 17.3348C48.0139 20.0472 43.772 20.7381 41.3031 20.9005C41.1127 18.4304 41.181 14.1146 43.5095 11.4193ZM26.3471 4.80858C29.1315 5.09728 34.2749 6.08666 36.9281 9.45824C37.3889 10.0442 37.7612 10.6832 38.0628 11.3552C36.6358 14.4942 36.4545 17.9897 36.5735 20.469C33.8159 19.916 30.3858 18.7289 28.3814 16.18C26.5827 13.8943 26.1108 10.7882 26.1108 8.15697C26.1108 6.87889 26.2219 5.71312 26.3471 4.80858Z" fill="#A78364"/>
<path d="M72.6141 6.18734C68.5419 6.18734 65.2289 9.50094 65.2289 13.5732V30.1003L63.7982 31.5798C63.4229 30.7119 62.8796 29.9026 62.1674 29.2019C59.201 26.2826 54.4006 26.3094 51.4667 29.2617L40 40.8004L28.5327 29.2611C25.5988 26.3094 20.799 26.2826 17.832 29.2019C17.1204 29.9019 16.5765 30.7119 16.2018 31.5798L14.7711 30.0997V13.5732C14.7711 9.50094 11.4575 6.18734 7.38525 6.18734C3.31299 6.18734 0 9.50094 0 13.5732V37.9958L14.6527 62.5747V70.9383H65.3473V62.5747L80 37.9958V13.5732C80 9.50094 76.687 6.18734 72.6141 6.18734ZM37.6562 66.2508H19.3402V61.2838L4.6875 36.7043V13.5732C4.6875 12.0852 5.89783 10.8748 7.38586 10.8748C8.87329 10.8748 10.0836 12.0852 10.0836 13.5732V31.9954L26.0779 48.5378L29.4482 45.2791L20.9424 36.4828C19.9719 35.339 20.0366 33.6092 21.12 32.5429C22.2534 31.4278 24.0869 31.4376 25.2081 32.5655L37.6562 45.0918V66.2508ZM75.3125 36.7043L60.6598 61.2838V66.2508H42.3438V45.0918L54.7919 32.5655C55.9131 31.4376 57.7466 31.4278 58.88 32.5429C59.9634 33.6092 60.0281 35.3396 59.057 36.4834L50.5518 45.2791L53.9215 48.5378L69.9164 31.9954V13.5732C69.9164 12.0852 71.1267 10.8748 72.6141 10.8748C74.1022 10.8748 75.3125 12.0852 75.3125 13.5732V36.7043Z" fill="#A78364"/>
</svg>
