<svg width="80" height="80" viewBox="0 0 80 80" fill="none" xmlns="http://www.w3.org/2000/svg">
<path d="M75.1416 35.0049C75.1416 27.1027 71.6425 21.0675 65.8069 17.4438L69.79 13.3789C70.7025 13.8129 71.7224 14.0564 72.7991 14.0564C74.6655 14.0564 76.4453 13.3386 77.8088 12.0349C79.2108 10.6946 79.9835 8.91663 79.9835 7.0282C79.9835 5.13977 79.2108 3.36182 77.8088 2.02148C76.4453 0.717774 74.6655 0 72.7991 0C68.9233 0 65.7703 3.15308 65.7703 7.0282C65.7703 8.11951 66.0205 9.15344 66.4661 10.0757L61.3257 15.3229C59.0369 14.5367 56.9 14.2133 55.3223 14.2133C47.7399 14.2133 42.8882 18.0219 39.9646 21.0217C35.9259 16.6113 30.6818 14.2993 24.6375 14.2993C22.3291 14.2993 20.296 14.624 18.5046 15.1752L13.3862 10.0568C13.8263 9.13941 14.0735 8.11218 14.0735 7.02881C14.0735 3.15308 10.9204 0.000610314 7.04529 0.000610314C3.16956 0.000610314 0.0164795 3.15308 0.0164795 7.02881C0.0164795 10.9039 3.16956 14.057 7.04529 14.057C8.12866 14.057 9.15588 13.8098 10.0732 13.3704L14.0002 17.2968C11.3715 19.0405 9.55139 21.2933 8.31848 23.3502C5.58167 27.9157 4.8584 32.9272 4.8584 34.9396C4.8584 44.6637 9.97131 53.0609 16.8164 59.8535L0 76.6705L3.31299 79.9835L20.2673 63.0298C20.8331 63.5144 21.413 63.996 22.0081 64.4733C30.2881 71.1206 38.4564 74.7723 38.8 74.9243L39.7394 75.3406L40.6818 74.9316C41.0303 74.7803 49.3195 71.1469 57.7246 64.5191C58.3838 63.9984 59.0247 63.4741 59.649 62.9456L76.687 79.9835L80 76.6705L63.1183 59.7888C70.0525 52.9865 75.1416 44.6411 75.1416 35.0049ZM72.7991 4.68567C74.1296 4.68567 75.2979 5.78064 75.2979 7.0282C75.2979 8.27637 74.1296 9.37134 72.7991 9.37134C71.507 9.37134 70.4559 8.32031 70.4559 7.0282C70.4559 5.73669 71.507 4.68567 72.7991 4.68567ZM7.04468 9.37134C5.75317 9.37134 4.70215 8.32031 4.70215 7.0282C4.70215 5.73669 5.75317 4.68567 7.04468 4.68567C8.33679 4.68567 9.38782 5.73669 9.38782 7.0282C9.38782 8.32031 8.33679 9.37134 7.04468 9.37134ZM53.714 61.6962L14.7266 22.7087C15.896 21.5723 17.2284 20.694 18.7207 20.0763L57.3682 58.7244C56.5381 59.4513 55.7104 60.1373 54.9011 60.7776C54.5056 61.0907 54.1095 61.3971 53.714 61.6962ZM22.464 58.7256C20.8826 57.3181 19.2896 55.752 17.7881 54.0399H26.1792L30.8643 58.7256H22.464ZM10.0885 31.3239C10.4474 29.8743 11.0205 28.1793 11.9086 26.5173L49.8358 64.4446C48.4009 65.398 47.0233 66.2494 45.7574 66.9928L10.0885 31.3239ZM66.5723 48.0487L58.5065 39.9817H69.8914C69.2413 42.8534 68.0676 45.5524 66.5723 48.0487ZM70.4559 35.0049C70.4559 35.1025 70.4541 35.2002 70.4529 35.2979H53.8214L49.1357 30.6122H69.9689C70.2808 31.9312 70.4559 33.3899 70.4559 35.0049ZM55.3223 18.8983C57.6007 18.8983 64.317 20.2887 67.9895 25.9271H44.4501L43.0737 24.5502C45.4852 22.0215 49.3237 18.8983 55.3223 18.8983ZM38.1848 26.2878L63.8605 51.9641C62.8815 53.208 61.8384 54.386 60.766 55.4956L24.2603 18.9899C24.3854 18.9868 24.5105 18.9844 24.6375 18.9844C33.8953 18.9844 37.5903 25.7446 38.1848 26.2878ZM9.69788 37.5592L21.4935 49.3549H14.2102C11.9116 45.8295 10.2026 41.8695 9.69788 37.5592ZM39.7583 70.1972C37.8644 69.2749 33.3447 66.9403 28.3771 63.4113H35.5499L41.4819 69.3433C40.7831 69.7009 40.1996 69.9866 39.7583 70.1972Z" fill="#A78364"/>
</svg>
