<svg width="80" height="80" viewBox="0 0 80 80" fill="none" xmlns="http://www.w3.org/2000/svg">
<path d="M56.0684 47.3092C57.9706 49.9725 61.0602 51.5625 64.333 51.5625H72.9688C76.8458 51.5625 80 48.4083 80 44.5312C80 40.6542 76.8458 37.5 72.9688 37.5H67.7559L60.1698 27.0691C57.6219 23.5655 53.7819 21.2328 49.5664 20.5339C51.3953 18.3597 52.5 15.5569 52.5 12.5C52.5 5.6075 46.8925 0 40 0C33.1075 0 27.5 5.6075 27.5 12.5C27.5 15.5569 28.6047 18.3597 30.4336 20.5339C26.2181 21.2328 22.3781 23.5655 19.8302 27.0691L12.2441 37.5H7.03125C3.15422 37.5 0 40.6542 0 44.5312C0 48.4083 3.15422 51.5625 7.03125 51.5625H15.667C18.9398 51.5625 22.0294 49.9725 23.9316 47.3094L25.1562 45.5948V57.9684L23.3192 57.4673C21.1178 56.8669 18.8445 56.5625 16.5625 56.5625C10.1008 56.5625 4.84375 61.8195 4.84375 68.2812C4.84375 74.743 10.1008 80 16.5625 80H63.4375C69.8992 80 75.1562 74.743 75.1562 68.2812C75.1562 61.8195 69.8992 56.5625 63.4375 56.5625C61.1555 56.5625 58.8822 56.8669 56.6809 57.4673L54.8438 57.9684V45.5948L56.0684 47.3092ZM40 4.6875C44.3078 4.6875 47.8125 8.19219 47.8125 12.5C47.8125 16.8078 44.3078 20.3125 40 20.3125C35.6922 20.3125 32.1875 16.8078 32.1875 12.5C32.1875 8.19219 35.6922 4.6875 40 4.6875ZM16.5625 75.3125C12.6855 75.3125 9.53125 72.1583 9.53125 68.2812C9.53125 64.4042 12.6855 61.25 16.5625 61.25C18.428 61.25 20.2862 61.4989 22.0858 61.9897L49.5291 69.4741C50.8183 69.8256 51.7188 71.0045 51.7188 72.3409C51.7188 73.9794 50.3858 75.3125 48.7472 75.3125H16.5625ZM57.9144 61.9897C59.7138 61.4989 61.572 61.25 63.4375 61.25C67.3145 61.25 70.4688 64.4042 70.4688 68.2812C70.4688 72.1583 67.3145 75.3125 63.4375 75.3125H55.8061C56.1923 74.3983 56.4062 73.3942 56.4062 72.3409C56.4062 68.8967 54.0855 65.8583 50.7625 64.9517L48.9081 64.4459L57.9144 61.9897ZM40.0002 62.0167L29.8438 59.2467V38.2812C29.8438 37.2623 29.1855 36.3602 28.2153 36.0494C27.2452 35.7388 26.185 36.0902 25.5928 36.9189L20.117 44.5848C19.0928 46.0187 17.4294 46.8748 15.667 46.8748H7.03125C5.73891 46.8748 4.6875 45.8234 4.6875 44.5311C4.6875 43.2388 5.73891 42.1873 7.03125 42.1873H13.4375C14.1873 42.1873 14.892 41.8286 15.333 41.222L23.6211 29.8258C25.8189 26.8042 29.3619 25 33.0984 25H46.9016C50.6383 25 54.1811 26.8042 56.3789 29.8261L64.667 41.2223C65.108 41.8288 65.8127 42.1875 66.5625 42.1875H72.9688C74.2611 42.1875 75.3125 43.2389 75.3125 44.5312C75.3125 45.8236 74.2611 46.875 72.9688 46.875H64.333C62.5706 46.875 60.9072 46.0189 59.883 44.5848L54.4073 36.9189C53.8152 36.09 52.755 35.7383 51.7848 36.0494C50.8145 36.3602 50.1562 37.2623 50.1562 38.2812V59.2469L40.0002 62.0167Z" fill="#A78364"/>
</svg>
