<svg width="48" height="48" viewBox="0 0 48 48" fill="none" xmlns="http://www.w3.org/2000/svg">
<path d="M42.0002 14.625C39.5146 14.6222 37.1317 13.6336 35.3741 11.8761C33.6166 10.1185 32.6279 7.73555 32.6252 5.25C32.6252 4.95163 32.5066 4.66548 32.2957 4.4545C32.0847 4.24353 31.7985 4.125 31.5002 4.125H24.0002C23.7018 4.125 23.4156 4.24353 23.2047 4.4545C22.9937 4.66548 22.8752 4.95163 22.8752 5.25V29.25C22.8749 29.9882 22.6766 30.7127 22.3009 31.3481C21.9252 31.9835 21.3858 32.5065 20.7391 32.8624C20.0924 33.2183 19.3621 33.3942 18.6243 33.3717C17.8865 33.3491 17.1682 33.129 16.5444 32.7343C15.9207 32.3396 15.4142 31.7847 15.078 31.1276C14.7417 30.4705 14.588 29.7351 14.6328 28.9983C14.6775 28.2615 14.9192 27.5502 15.3326 26.9387C15.7459 26.3271 16.3158 25.8376 16.9828 25.5214C17.175 25.4301 17.3374 25.2861 17.4511 25.1063C17.5648 24.9264 17.6252 24.7179 17.6252 24.5051V16.6982C17.6252 16.5337 17.5892 16.3713 17.5196 16.2222C17.4501 16.0732 17.3487 15.9413 17.2226 15.8356C17.0966 15.73 16.9489 15.6533 16.79 15.611C16.6311 15.5686 16.4648 15.5616 16.3029 15.5904C13.7045 16.0558 11.2928 17.2527 9.3508 19.0406C7.40878 20.8286 6.01705 23.1334 5.33894 25.6845C4.66083 28.2357 4.72449 30.9273 5.52244 33.4435C6.32039 35.9598 7.81952 38.1962 9.84389 39.8903C11.8683 41.5844 14.3339 42.666 16.9513 43.008C19.5688 43.35 22.2295 42.9383 24.6213 41.8213C27.013 40.7042 29.0364 38.9281 30.4541 36.7013C31.8718 34.4746 32.625 31.8897 32.6252 29.25V21.9244C35.4857 23.5381 38.7158 24.3825 42.0002 24.375C42.2985 24.375 42.5847 24.2565 42.7957 24.0455C43.0066 23.8345 43.1252 23.5484 43.1252 23.25V15.75C43.1252 15.4516 43.0066 15.1655 42.7957 14.9545C42.5847 14.7435 42.2985 14.625 42.0002 14.625ZM40.8752 22.0882C37.7325 21.8863 34.7106 20.8015 32.157 18.9585C31.9889 18.8377 31.7908 18.7655 31.5844 18.75C31.378 18.7345 31.1713 18.7763 30.9871 18.8707C30.8029 18.9651 30.6483 19.1085 30.5403 19.2851C30.4324 19.4617 30.3752 19.6646 30.3752 19.8716V29.25C30.3743 31.4034 29.7753 33.5142 28.645 35.3471C27.5147 37.18 25.8975 38.6629 23.9738 39.6305C22.0501 40.5981 19.8954 41.0124 17.75 40.8271C15.6046 40.6419 13.5528 39.8643 11.8234 38.5812C10.0941 37.2982 8.75506 35.5599 7.95573 33.5604C7.1564 31.5609 6.92816 29.3786 7.29646 27.257C7.66476 25.1353 8.61512 23.1577 10.0416 21.5445C11.468 19.9314 13.3145 18.7461 15.3752 18.1209V23.8416C14.4337 24.4291 13.6619 25.2522 13.1361 26.2295C12.6103 27.2068 12.3487 28.3045 12.3773 29.4139C12.4058 30.5233 12.7235 31.606 13.2988 32.555C13.8742 33.504 14.6873 34.2863 15.6578 34.8246C16.6283 35.363 17.7224 35.6386 18.8321 35.6244C19.9418 35.6101 21.0285 35.3064 21.9848 34.7433C22.9411 34.1802 23.7339 33.3772 24.2846 32.4138C24.8354 31.4503 25.1251 30.3598 25.1252 29.25V6.375H30.4292C30.6937 9.05557 31.8793 11.5616 33.7839 13.4662C35.6886 15.3709 38.1946 16.5564 40.8752 16.821V22.0882Z" fill="#A78364"/>
</svg>
