<svg width="48" height="48" viewBox="0 0 48 48" fill="none" xmlns="http://www.w3.org/2000/svg">
<path d="M45.0001 7.1776C45.0001 7.00109 44.9534 6.82774 44.8647 6.67515C44.7759 6.52256 44.6484 6.39617 44.495 6.30882C44.3417 6.22147 44.1679 6.17627 43.9914 6.17781C43.8149 6.17935 43.642 6.22758 43.4902 6.3176C42.0826 7.15578 40.5539 7.77106 38.9581 8.1416C37.2143 6.47664 34.8932 5.55194 32.4821 5.5616C31.1726 5.56346 29.8777 5.83713 28.6794 6.36529C27.4811 6.89345 26.4055 7.6646 25.5206 8.62994C24.6357 9.59529 23.9608 10.7338 23.5387 11.9734C23.1165 13.2131 22.9563 14.5268 23.0681 15.8316C17.0224 15.1891 11.4752 12.1844 7.63415 7.4716C7.53163 7.3464 7.40026 7.24794 7.25131 7.18469C7.10236 7.12144 6.94029 7.09528 6.779 7.10846C6.61772 7.12164 6.46204 7.17376 6.32534 7.26035C6.18863 7.34694 6.07499 7.46541 5.99415 7.6056C5.16439 9.05258 4.72792 10.6916 4.72815 12.3596C4.72571 14.1903 5.25516 15.9822 6.25215 17.5176L6.13215 17.4516C5.97545 17.3747 5.80146 17.3398 5.62722 17.3503C5.45298 17.3608 5.28446 17.4164 5.13815 17.5116C4.98571 17.6107 4.86059 17.7465 4.77428 17.9066C4.68797 18.0666 4.64322 18.2458 4.64415 18.4276C4.63615 18.6636 4.65015 18.9016 4.68815 19.1336C4.78267 20.454 5.15551 21.7395 5.78217 22.9057C6.40883 24.0718 7.27513 25.0921 8.32415 25.8996C8.19629 25.9372 8.07725 26.0001 7.97402 26.0844C7.8708 26.1687 7.78546 26.2728 7.72304 26.3905C7.66062 26.5083 7.62237 26.6374 7.61054 26.7701C7.59871 26.9029 7.61354 27.0367 7.65415 27.1636C8.11616 28.6042 8.91876 29.9121 9.99389 30.9764C11.069 32.0408 12.385 32.8301 13.8301 33.2776C10.8791 34.9297 7.48039 35.604 4.12215 35.2036C3.89711 35.1755 3.66919 35.2246 3.47578 35.3431C3.28238 35.4615 3.13498 35.6422 3.05778 35.8554C2.98057 36.0687 2.97814 36.3018 3.05089 36.5166C3.12364 36.7315 3.26725 36.9152 3.45815 37.0376C7.47704 39.6253 12.1562 41.0008 16.9361 40.9996C22.3585 41.0595 27.6487 39.3259 31.9839 36.0685C36.3192 32.8111 39.4566 28.2124 40.9081 22.9876C41.5862 20.7136 41.9321 18.3516 41.9361 15.9776C41.9361 15.7376 41.9361 15.4876 41.9301 15.2336C42.9704 14.1759 43.7802 12.9143 44.3085 11.5281C44.8369 10.1419 45.0724 8.6613 45.0001 7.1796V7.1776ZM40.1521 14.2436C39.9879 14.4378 39.9041 14.6876 39.9181 14.9416C40.0274 17.4699 39.7138 19.9986 38.9902 22.4236C37.6994 27.256 34.8247 31.5157 30.8263 34.521C26.8279 37.5262 21.9369 39.1032 16.9361 38.9996C13.8841 38.9996 10.8621 38.3896 8.05015 37.2056C11.356 36.8388 14.492 35.5498 17.1001 33.4856C17.2624 33.358 17.3812 33.1834 17.4403 32.9856C17.4994 32.7878 17.4958 32.5766 17.4301 32.381C17.3643 32.1853 17.2397 32.0148 17.0732 31.8928C16.9067 31.7708 16.7065 31.7033 16.5001 31.6996C15.2201 31.6788 13.9671 31.3271 12.8632 30.6787C11.7592 30.0304 10.8418 29.1074 10.2001 27.9996C11.0501 28.0016 11.8941 27.8856 12.7081 27.6516C12.9227 27.5887 13.11 27.4558 13.2401 27.274C13.3702 27.0922 13.4357 26.872 13.426 26.6487C13.4163 26.4253 13.3321 26.2117 13.1867 26.0418C13.0414 25.872 12.8433 25.7557 12.6241 25.7116C11.1925 25.4251 9.8774 24.7222 8.84378 23.6911C7.81016 22.6599 7.10408 21.3465 6.81415 19.9156C7.66351 20.191 8.54765 20.3446 9.44015 20.3716C9.66004 20.3879 9.87871 20.3268 10.0584 20.199C10.238 20.0712 10.3674 19.8847 10.4241 19.6716C10.4895 19.4648 10.4858 19.2423 10.4136 19.0378C10.3415 18.8332 10.2048 18.6577 10.0241 18.5376C9.00664 17.8603 8.17296 16.9413 7.59775 15.8627C7.02254 14.7842 6.72376 13.5799 6.72815 12.3576C6.72815 11.5316 6.86215 10.7116 7.12815 9.9316C11.5622 14.7196 17.6909 17.5866 24.2081 17.9216C24.3639 17.9382 24.5212 17.914 24.6647 17.8512C24.8081 17.7884 24.9327 17.6893 25.0261 17.5636C25.2261 17.3236 25.3041 17.0016 25.2321 16.6956C25.1001 16.144 25.033 15.5788 25.0321 15.0116C25.0343 13.0365 25.8195 11.1429 27.2157 9.74599C28.6119 8.34904 30.5051 7.56277 32.4801 7.5596C33.4975 7.5567 34.5044 7.76475 35.4373 8.17061C36.3701 8.57646 37.2087 9.17131 37.9002 9.9176C38.0163 10.0415 38.1621 10.1336 38.3238 10.1854C38.4854 10.2372 38.6577 10.2469 38.8242 10.2136C40.2441 9.9336 41.6241 9.4836 42.9341 8.8716C42.5934 10.9102 41.6193 12.7898 40.1502 14.2436H40.1521Z" fill="#A78364"/>
</svg>
