<svg width="48" height="48" viewBox="0 0 48 48" fill="none" xmlns="http://www.w3.org/2000/svg">
<path d="M24 15.375C22.2941 15.375 20.6266 15.8808 19.2082 16.8286C17.7898 17.7763 16.6843 19.1233 16.0315 20.6994C15.3787 22.2754 15.2079 24.0096 15.5407 25.6827C15.8735 27.3557 16.695 28.8926 17.9012 30.0988C19.1074 31.305 20.6443 32.1265 22.3173 32.4593C23.9904 32.7921 25.7246 32.6213 27.3006 31.9685C28.8767 31.3157 30.2237 30.2102 31.1714 28.7918C32.1192 27.3734 32.625 25.7059 32.625 24C32.6224 21.7133 31.7129 19.521 30.0959 17.9041C28.479 16.2871 26.2867 15.3776 24 15.375ZM24 30.375C22.7391 30.375 21.5066 30.0011 20.4582 29.3006C19.4099 28.6001 18.5928 27.6045 18.1103 26.4396C17.6278 25.2747 17.5015 23.9929 17.7475 22.7563C17.9935 21.5197 18.6006 20.3838 19.4922 19.4922C20.3838 18.6006 21.5197 17.9935 22.7563 17.7475C23.9929 17.5015 25.2747 17.6278 26.4396 18.1103C27.6045 18.5928 28.6001 19.4099 29.3006 20.4582C30.0011 21.5066 30.375 22.7391 30.375 24C30.3731 25.6902 29.7008 27.3105 28.5057 28.5057C27.3105 29.7008 25.6902 30.3731 24 30.375ZM32.25 5.625H15.75C13.0656 5.62808 10.4921 6.6958 8.59394 8.59394C6.6958 10.4921 5.62808 13.0656 5.625 15.75V32.25C5.62808 34.9344 6.6958 37.5079 8.59394 39.4061C10.4921 41.3042 13.0656 42.3719 15.75 42.375H32.25C34.9344 42.3719 37.5079 41.3042 39.4061 39.4061C41.3042 37.5079 42.3719 34.9344 42.375 32.25V15.75C42.3719 13.0656 41.3042 10.4921 39.4061 8.59394C37.5079 6.6958 34.9344 5.62808 32.25 5.625ZM40.125 32.25C40.1227 34.3379 39.2922 36.3395 37.8159 37.8159C36.3395 39.2922 34.3379 40.1227 32.25 40.125H15.75C13.6621 40.1227 11.6605 39.2922 10.1841 37.8159C8.70777 36.3395 7.87733 34.3379 7.875 32.25V15.75C7.87733 13.6621 8.70777 11.6605 10.1841 10.1841C11.6605 8.70777 13.6621 7.87733 15.75 7.875H32.25C34.3379 7.87733 36.3395 8.70777 37.8159 10.1841C39.2922 11.6605 40.1227 13.6621 40.125 15.75V32.25ZM35.625 14.25C35.625 14.6208 35.515 14.9834 35.309 15.2917C35.103 15.6 34.8101 15.8404 34.4675 15.9823C34.1249 16.1242 33.7479 16.1613 33.3842 16.089C33.0205 16.0166 32.6864 15.838 32.4242 15.5758C32.1619 15.3136 31.9834 14.9795 31.911 14.6158C31.8387 14.2521 31.8758 13.8751 32.0177 13.5325C32.1596 13.1899 32.4 12.897 32.7083 12.691C33.0166 12.485 33.3792 12.375 33.75 12.375C34.2471 12.3756 34.7237 12.5733 35.0752 12.9248C35.4267 13.2763 35.6244 13.7529 35.625 14.25Z" fill="#A78364"/>
</svg>
