<svg width="128" height="128" viewBox="0 0 128 128" fill="none" xmlns="http://www.w3.org/2000/svg">
<g filter="url(#filter0_d)">
<rect x="4" width="120" height="120" rx="60" fill="#25D366"/>
<path fill-rule="evenodd" clip-rule="evenodd" d="M80.4964 67.3538C79.5981 66.9046 75.194 64.7402 74.3741 64.4388C73.5542 64.1404 72.9573 63.9927 72.3574 64.891C71.7606 65.7832 70.0454 67.8029 69.5239 68.3998C68.9994 68.9996 68.4779 69.072 67.5826 68.6258C66.6873 68.1737 63.7995 67.2302 60.3781 64.1796C57.7163 61.8042 55.9167 58.8711 55.3952 57.9728C54.8737 57.0775 55.3379 56.5922 55.7871 56.1461C56.191 55.7452 56.6824 55.1001 57.1315 54.5786C57.5807 54.0541 57.7284 53.6803 58.0268 53.0804C58.3283 52.4835 58.1775 51.962 57.9514 51.5129C57.7284 51.0637 55.9378 46.6536 55.1902 44.86C54.4637 43.1147 53.7252 43.3528 53.1766 43.3227C52.6521 43.2985 52.0552 43.2925 51.4583 43.2925C50.8615 43.2925 49.8908 43.5156 49.0709 44.4139C48.248 45.3092 45.9359 47.4766 45.9359 51.8867C45.9359 56.2938 49.1433 60.5532 49.5924 61.1531C50.0416 61.7499 55.9077 70.7993 64.8937 74.6788C67.0339 75.6012 68.7009 76.1529 70.0001 76.5629C72.1464 77.2471 74.0998 77.1507 75.6432 76.9186C77.3614 76.6623 80.9426 74.7512 81.6901 72.6592C82.4347 70.5671 82.4347 68.7736 82.2116 68.3998C81.9886 68.026 81.3917 67.8029 80.4934 67.3538H80.4964ZM64.1521 89.6696H64.1401C58.8028 89.6706 53.5635 88.2358 48.9714 85.5157L47.8862 84.8706L36.6062 87.8308L39.6176 76.8342L38.9092 75.7068C35.9254 70.9571 34.3463 65.46 34.3544 59.8508C34.3605 43.4221 47.7265 30.0561 64.1642 30.0561C72.1223 30.0561 79.6041 33.161 85.2291 38.792C88.0035 41.5549 90.2025 44.8406 91.6989 48.459C93.1953 52.0773 93.9593 55.9564 93.9468 59.8719C93.9408 76.3006 80.5748 89.6696 64.1521 89.6696ZM89.5096 34.5145C86.1883 31.1712 82.2364 28.5204 77.8832 26.7155C73.5299 24.9107 68.8617 23.9877 64.1491 24.0001C44.3925 24.0001 28.3075 40.0821 28.3014 59.8478C28.2984 66.1661 29.9473 72.3336 33.0854 77.7686L28 96.3466L47.003 91.3607C52.2598 94.2248 58.1507 95.7255 64.1371 95.7256H64.1521C83.9088 95.7256 99.9938 79.6436 99.9998 59.8749C100.014 55.1642 99.0948 50.4973 97.2942 46.1443C95.4935 41.7912 92.8477 37.8384 89.5096 34.5145Z" fill="white"/>
</g>
<defs>
<filter id="filter0_d" x="0" y="0" width="128" height="128" filterUnits="userSpaceOnUse" color-interpolation-filters="sRGB">
<feFlood flood-opacity="0" result="BackgroundImageFix"/>
<feColorMatrix in="SourceAlpha" type="matrix" values="0 0 0 0 0 0 0 0 0 0 0 0 0 0 0 0 0 0 127 0" result="hardAlpha"/>
<feOffset dy="4"/>
<feGaussianBlur stdDeviation="2"/>
<feComposite in2="hardAlpha" operator="out"/>
<feColorMatrix type="matrix" values="0 0 0 0 0 0 0 0 0 0 0 0 0 0 0 0 0 0 0.25 0"/>
<feBlend mode="normal" in2="BackgroundImageFix" result="effect1_dropShadow"/>
<feBlend mode="normal" in="SourceGraphic" in2="effect1_dropShadow" result="shape"/>
</filter>
</defs>
</svg>
