<svg width="48" height="48" viewBox="0 0 48 48" fill="none" xmlns="http://www.w3.org/2000/svg">
<path d="M24 4.875C20.2174 4.875 16.5198 5.99666 13.3747 8.09814C10.2296 10.1996 7.77834 13.1865 6.33081 16.6812C4.88329 20.1758 4.50455 24.0212 5.24249 27.7311C5.98043 31.441 7.80191 34.8487 10.4766 37.5234C13.1513 40.1981 16.559 42.0196 20.2689 42.7575C23.9788 43.4955 27.8242 43.1167 31.3188 41.6692C34.8135 40.2217 37.8004 37.7704 39.9019 34.6253C42.0033 31.4802 43.125 27.7826 43.125 24C43.1193 18.9295 41.1025 14.0683 37.5171 10.4829C33.9317 6.89749 29.0705 4.88071 24 4.875ZM24 40.875C20.6624 40.875 17.3998 39.8853 14.6248 38.031C11.8497 36.1768 9.68677 33.5413 8.40954 30.4578C7.13231 27.3743 6.79813 23.9813 7.44926 20.7079C8.10038 17.4344 9.70757 14.4276 12.0676 12.0676C14.4276 9.70756 17.4344 8.10037 20.7079 7.44925C23.9813 6.79812 27.3743 7.1323 30.4578 8.40953C33.5413 9.68676 36.1768 11.8497 38.0311 14.6248C39.8853 17.3998 40.875 20.6624 40.875 24C40.8699 28.474 39.0904 32.7633 35.9268 35.9268C32.7633 39.0904 28.474 40.8699 24 40.875ZM34.5881 20.826C34.5206 20.9574 34.4278 21.0743 34.3152 21.1698C34.2025 21.2654 34.0721 21.3378 33.9314 21.383C33.7907 21.4281 33.6425 21.4451 33.4952 21.433C33.3479 21.4208 33.2045 21.3798 33.0731 21.3122C30.262 19.8732 27.1488 19.1235 23.9908 19.125C20.8327 19.1266 17.7203 19.8793 14.9106 21.321C14.6453 21.4577 14.3366 21.4833 14.0525 21.3924C13.7683 21.3015 13.5318 21.1014 13.3952 20.8361C13.2585 20.5709 13.2329 20.2622 13.3238 19.978C13.4147 19.6938 13.6148 19.4574 13.8801 19.3207C17.0117 17.7144 20.4805 16.8761 24 16.875C27.514 16.8643 30.9789 17.6999 34.1018 19.3112C34.2332 19.3787 34.35 19.4715 34.4456 19.5842C34.5412 19.6968 34.6136 19.8273 34.6588 19.9679C34.7039 20.1086 34.7209 20.2568 34.7088 20.4041C34.6967 20.5513 34.6557 20.6948 34.5881 20.8262V20.826ZM31.8075 26.1454C31.7404 26.277 31.648 26.3941 31.5356 26.49C31.4232 26.5859 31.293 26.6587 31.1524 26.7043C31.0119 26.7499 30.8637 26.7673 30.7165 26.7557C30.5692 26.744 30.4256 26.7034 30.294 26.6362C28.3419 25.6416 26.1819 25.1237 23.991 25.1251C21.8001 25.1265 19.6407 25.6471 17.6899 26.6443C17.4243 26.7803 17.1156 26.8052 16.8316 26.7135C16.5477 26.6218 16.3118 26.4211 16.1758 26.1555C16.0399 25.8899 16.015 25.5812 16.1067 25.2972C16.1983 25.0133 16.399 24.7774 16.6646 24.6414C18.9324 23.4821 21.4426 22.8767 23.9895 22.8751C26.5364 22.8735 29.0474 23.4756 31.3166 24.6321C31.5823 24.7677 31.7833 25.0032 31.8754 25.287C31.9674 25.5707 31.943 25.8794 31.8075 26.1452V26.1454ZM29.0318 31.4552C28.8981 31.7219 28.6639 31.9246 28.3808 32.0187C28.0977 32.1128 27.7888 32.0906 27.522 31.9569C26.426 31.4086 25.2171 31.1237 23.9916 31.1251C22.7661 31.1265 21.5578 31.414 20.463 31.9648C20.1965 32.0991 19.8877 32.122 19.6043 32.0285C19.3209 31.935 19.0863 31.7328 18.952 31.4663C18.8178 31.1999 18.7949 30.891 18.8883 30.6076C18.9818 30.3243 19.184 30.0896 19.4505 29.9554C20.8586 29.2467 22.4128 28.8768 23.9892 28.875C25.5655 28.8733 27.1205 29.2397 28.5302 29.9452C28.6623 30.0115 28.78 30.103 28.8767 30.2147C28.9734 30.3265 29.0471 30.4561 29.0937 30.5963C29.1403 30.7365 29.1588 30.8846 29.1482 31.0319C29.1375 31.1793 29.098 31.3231 29.0318 31.4552Z" fill="#A78364"/>
</svg>
