<svg width="48" height="48" viewBox="0 0 48 48" fill="none" xmlns="http://www.w3.org/2000/svg">
<path d="M24.0001 4.55883C13.2806 4.55883 4.55834 13.2786 4.55834 23.9994C4.55834 34.7202 13.2806 43.44 24.0001 43.44C34.7196 43.44 43.4419 34.7202 43.4419 23.9994C43.4419 13.2786 34.7196 4.55883 24.0001 4.55883ZM24.0001 41.681C14.251 41.681 6.31965 33.7486 6.31965 23.9994C6.31965 14.2502 14.251 6.31775 24.0001 6.31775C33.7492 6.31775 41.6805 14.2502 41.6805 23.9994C41.6805 33.7486 33.7492 41.681 24.0001 41.681Z" fill="#A78364" stroke="#A78364" stroke-width="0.48"/>
<path d="M27.3093 16.4975L26.058 16.4496L26.0581 16.4495H26.0489C25.0785 16.4495 24.4825 16.7142 24.1482 17.1843C23.828 17.6345 23.7935 18.2176 23.7935 18.7321L23.7935 18.7319L24.0335 18.7324H23.7935L27.3093 16.4975ZM27.3093 16.4975V14.6997H24.9951C23.5985 14.6997 22.847 15.0139 22.4231 15.5788C21.984 16.1641 21.8438 17.0796 21.8438 18.4234V21.004C21.8438 21.1844 21.8242 21.4337 21.633 21.6267L21.632 21.6278C21.5502 21.7094 21.4531 21.7741 21.3463 21.8182C21.2395 21.8622 21.125 21.8848 21.0095 21.8847M27.3093 16.4975L27.3524 21.8835M27.3524 21.8835V23.717M27.3524 21.8835H27.5924L24.0287 21.0028C24.0285 21.0869 24.045 21.1702 24.077 21.2479C24.1091 21.3256 24.1562 21.3962 24.2156 21.4558C24.275 21.5153 24.3455 21.5625 24.4232 21.5947C24.5008 21.6269 24.5841 21.6435 24.6682 21.6435H27.3524V21.8835ZM27.3524 23.717H24.6706C24.4373 23.717 24.2135 23.8096 24.0484 23.9744C23.8833 24.1392 23.7903 24.3628 23.7899 24.596V24.5965L23.7887 33.3389M27.3524 23.717H27.5924L27.3524 23.957V23.717ZM23.7887 33.3389H21.845M23.7887 33.3389H24.0287V33.5789M23.7887 33.3389L23.7887 33.5788L24.0287 33.5789M21.845 33.3389V24.5977C21.845 24.1355 21.5193 23.7182 21.0098 23.7182H19.45M21.845 33.3389H21.605V24.5977C21.605 24.2444 21.3643 23.9582 21.0098 23.9582H19.45V23.7182M21.845 33.3389V33.5789H24.0287M19.45 23.7182V21.8847M19.45 23.7182H19.21V21.8847H19.45M19.45 21.8847H21.0095M19.45 21.8847V21.6447L24.6706 23.957C24.5008 23.957 24.3381 24.0244 24.218 24.1442C24.0978 24.2641 24.0302 24.4268 24.0299 24.5965L24.0287 33.5789M21.0095 21.8847H21.0098V21.6447L21.0095 21.8847ZM17.9942 20.3881L17.9942 20.3881C17.9102 20.4721 17.8467 20.5744 17.8086 20.6869C17.7724 20.7939 17.7601 20.9075 17.7725 21.0197V24.5832C17.7601 24.6954 17.7724 24.809 17.8086 24.916C17.8467 25.0285 17.9102 25.1307 17.9942 25.2147C18.0782 25.2987 18.1804 25.3623 18.293 25.4003C18.4 25.4366 18.5136 25.4488 18.6257 25.4364H20.1675V34.1643C20.156 34.2768 20.1692 34.3904 20.2062 34.4974C20.245 34.6094 20.3089 34.7111 20.3929 34.7946C20.477 34.8782 20.579 34.9414 20.6912 34.9795L20.7684 34.7522L20.6912 34.9795C20.7982 35.0158 20.9116 35.0283 21.0238 35.0163H24.6555C24.8979 35.0399 25.1291 34.9546 25.283 34.7871C25.4355 34.6211 25.4993 34.3874 25.4351 34.1437L25.4374 25.4364H28.1767C28.2889 25.4488 28.4024 25.4366 28.5095 25.4003C28.622 25.3623 28.7242 25.2988 28.8082 25.2147C28.8922 25.1307 28.9557 25.0285 28.9938 24.916C29.03 24.809 29.0423 24.6954 29.0299 24.5832V21.0197C29.0423 20.9075 29.03 20.7939 28.9938 20.6869C28.9557 20.5744 28.8922 20.4722 28.8082 20.3881C28.7242 20.3041 28.622 20.2406 28.5095 20.2026C28.4024 20.1663 28.2889 20.1541 28.1767 20.1665H25.4343L25.4374 18.6286C25.4658 18.4425 25.4848 18.329 25.5063 18.2544C25.5109 18.2385 25.5149 18.2269 25.5182 18.2185C25.533 18.2176 25.5581 18.2172 25.5981 18.2194C25.6395 18.2217 25.687 18.2258 25.7472 18.2311C25.7541 18.2317 25.7611 18.2323 25.7683 18.2329C25.837 18.2389 25.9174 18.2456 26.0096 18.2511L26.0166 18.2515H26.0237H28.166H28.1925L28.2183 18.2457C28.2476 18.2392 28.2799 18.2346 28.3214 18.2295C28.3266 18.2289 28.3319 18.2282 28.3375 18.2275C28.3731 18.2232 28.4166 18.2179 28.4588 18.2102C28.5599 18.1918 28.6898 18.1543 28.8015 18.0459C28.9627 17.8894 29.0801 17.6538 29.0287 17.3874V13.835C29.0414 13.723 29.0293 13.6095 28.9933 13.5025C28.9554 13.3898 28.8921 13.2875 28.8081 13.2034C28.7242 13.1193 28.6219 13.0557 28.5094 13.0176C28.4024 12.9813 28.2888 12.9691 28.1766 12.9815H24.9975C22.911 12.9609 21.673 13.5995 20.9758 14.6533C20.2944 15.6832 20.1675 17.0594 20.1675 18.4246V20.1665H18.6257C18.5136 20.1541 18.4 20.1663 18.293 20.2026C18.1804 20.2406 18.0782 20.3041 17.9942 20.3881Z" fill="#A78364" stroke="#A78364" stroke-width="0.48"/>
</svg>
