<svg width="113" height="108" viewBox="0 0 113 108" fill="none" xmlns="http://www.w3.org/2000/svg">
<path d="M21.598 86.4056L22.258 85.5967L24.9636 87.8044L32.2582 78.865L33.2344 79.6616L25.9398 88.601L28.6593 90.8201L27.9992 91.629L21.598 86.4056Z" fill="black"/>
<path d="M14.7956 76.0706C14.921 76.2892 14.9504 76.5214 14.8837 76.7671C14.8171 77.0127 14.6693 77.2012 14.4403 77.3326C14.2113 77.4639 13.9791 77.4933 13.7438 77.4207C13.4982 77.3541 13.3126 77.2114 13.1873 76.9928C13.0619 76.7742 13.0326 76.5421 13.0992 76.2964C13.1554 76.0567 13.298 75.8711 13.527 75.7398C13.756 75.6085 13.9934 75.5761 14.2391 75.6428C14.4848 75.7094 14.6703 75.852 14.7956 76.0706ZM16.0906 74.6019L24.6165 69.7132L25.2433 70.8062L16.7174 75.6949L16.0906 74.6019Z" fill="black"/>
<path d="M14.6761 53.9586C15.1047 53.9045 15.4336 53.8751 15.6628 53.8703L16.6844 61.9601C17.418 61.8311 18.0264 61.5729 18.5097 61.1853C18.9929 60.7977 19.3384 60.3247 19.5461 59.7663C19.7418 59.2093 19.8006 58.6214 19.7224 58.0023C19.6202 57.1927 19.3381 56.5389 18.876 56.0409C18.4125 55.5309 17.8361 55.2287 17.1468 55.1344L16.98 53.8128C17.9625 53.9307 18.8069 54.3441 19.5133 55.0532C20.2063 55.7519 20.6272 56.6906 20.7761 57.8692C20.8918 58.7859 20.7932 59.633 20.4801 60.4103C20.1551 61.1892 19.6439 61.8343 18.9465 62.3457C18.2357 62.8467 17.3743 63.1611 16.3623 63.2889C15.3503 63.4167 14.4378 63.3263 13.6248 63.0177C12.8117 62.7092 12.1569 62.2173 11.6604 61.5422C11.1639 60.8671 10.8571 60.0652 10.7398 59.1366C10.6225 58.208 10.7227 57.3728 11.0403 56.6312C11.3564 55.8777 11.8363 55.2728 12.4803 54.8165C13.1108 54.3498 13.8427 54.0639 14.6761 53.9586ZM14.8005 55.2311C14.0727 55.3109 13.4725 55.5379 12.9996 55.9121C12.5253 56.2743 12.1902 56.7339 11.9944 57.2909C11.7987 57.8478 11.7399 58.4358 11.818 59.0549C11.9353 59.9835 12.3329 60.7376 13.0109 61.3172C13.6888 61.8969 14.574 62.154 15.6664 62.0886L14.8005 55.2311Z" fill="black"/>
<path d="M13.2868 37.7365C13.714 36.6409 14.4038 35.8794 15.3561 35.4522C16.2971 35.0206 17.4106 35.0555 18.6963 35.5568L24.0627 37.6494L23.6115 38.8066L18.3792 36.7663C17.3842 36.3783 16.5258 36.3334 15.8042 36.6316C15.0869 36.9186 14.5604 37.4926 14.2247 38.3534C13.8803 39.2367 13.8852 40.05 14.2393 40.7934C14.5934 41.5369 15.3127 42.12 16.3971 42.5429L21.3946 44.4917L20.9369 45.6656L11.7804 42.0951L12.2382 40.9212L13.7978 41.5293C13.3521 41.0207 13.0908 40.4357 13.0137 39.7746C12.9255 39.109 13.0165 38.4297 13.2868 37.7365Z" fill="black"/>
<path d="M24.9484 27.6201C24.3091 26.8407 23.9075 26.0294 23.7436 25.1861C23.572 24.3335 23.6305 23.525 23.9192 22.7606C24.2095 21.9792 24.7026 21.3032 25.3985 20.7324C26.0665 20.1845 26.8028 19.8522 27.6073 19.7356C28.4118 19.6189 29.1524 19.7177 29.8291 20.0318L26.2675 15.6895L27.2418 14.8905L35.689 25.1894L34.7148 25.9884L33.3221 24.2905C33.5239 25.0096 33.5012 25.7577 33.2539 26.5348C32.999 27.3026 32.5143 27.9794 31.7999 28.5654C31.104 29.1362 30.3446 29.4875 29.5215 29.6194C28.7078 29.7436 27.8996 29.6382 27.0971 29.3031C26.3039 28.9605 25.5876 28.3994 24.9484 27.6201ZM31.5984 22.189C31.0961 21.5766 30.5295 21.1412 29.8985 20.8827C29.2675 20.6243 28.6312 20.5487 27.9896 20.6558C27.3574 20.7554 26.7814 21.0182 26.2618 21.4444C25.7237 21.8858 25.3402 22.4021 25.1112 22.9934C24.8823 23.5847 24.8328 24.2151 24.9628 24.8845C25.0945 25.537 25.419 26.1787 25.9365 26.8096C26.4464 27.4312 27.016 27.8797 27.6454 28.1551C28.2764 28.4135 28.908 28.4929 29.5403 28.3934C30.165 28.2846 30.7464 28.0095 31.2845 27.5681C31.8041 27.1419 32.1746 26.6285 32.3959 26.028C32.6265 25.4198 32.6768 24.781 32.5468 24.1116C32.4168 23.4422 32.1007 22.8013 31.5984 22.189Z" fill="black"/>
<path d="M41.7806 16.8113C41.6198 15.8162 41.6745 14.9139 41.9448 14.1044C42.225 13.2811 42.682 12.6116 43.3158 12.0959C43.9596 11.5663 44.7257 11.2298 45.6141 11.0862C46.5382 10.9368 47.3663 11.0217 48.0986 11.341C48.8428 11.6583 49.4166 12.1247 49.82 12.7402L49.4753 10.6079L50.7192 10.4068L52.2875 20.1089L51.0436 20.3099L50.6961 18.1598C50.4953 18.873 50.0927 19.5033 49.4883 20.0508C48.8939 20.5845 48.1347 20.926 47.2107 21.0754C46.334 21.2171 45.5068 21.1381 44.729 20.8384C43.9631 20.5367 43.3174 20.0394 42.7921 19.3463C42.2786 18.6514 41.9415 17.8063 41.7806 16.8113ZM50.2595 15.4589C50.1331 14.6771 49.8621 14.0158 49.4465 13.4752C49.0309 12.9346 48.5189 12.5494 47.9104 12.3195C47.3138 12.0878 46.6838 12.0255 46.0204 12.1327C45.3333 12.2438 44.7422 12.4974 44.247 12.8935C43.7519 13.2896 43.3923 13.8096 43.1682 14.4536C42.954 15.0839 42.912 15.8018 43.0422 16.6073C43.1705 17.401 43.4375 18.0751 43.8432 18.6294C44.2588 19.17 44.7649 19.5562 45.3615 19.788C45.9562 20.0079 46.5971 20.0623 47.2842 19.9513C47.9476 19.844 48.5259 19.5864 49.0191 19.1785C49.5242 18.7687 49.8888 18.2417 50.1129 17.5977C50.337 16.9537 50.3858 16.2408 50.2595 15.4589Z" fill="black"/>
<path d="M74.7556 10.5808L71.8373 22.8197L70.6116 22.5274L71.9769 16.802L65.3409 15.2196L63.9757 20.9451L62.75 20.6528L65.6684 8.41396L66.8941 8.70621L65.5831 14.2041L72.219 15.7864L73.53 10.2886L74.7556 10.5808Z" fill="black"/>
<path d="M82.165 29.643C81.4865 29.0158 81.0125 28.2998 80.7432 27.4952C80.4907 26.6899 80.4625 25.8631 80.6584 25.0147C80.8713 24.1656 81.324 23.3666 82.0164 22.6176C82.7087 21.8686 83.4701 21.3631 84.3005 21.1012C85.1391 20.8305 85.97 20.7979 86.7933 21.0033C87.6247 21.1999 88.3797 21.6118 89.0582 22.239C89.7367 22.8662 90.2066 23.5866 90.4678 24.4C90.746 25.2128 90.7787 26.0437 90.5658 26.8928C90.3698 27.7411 89.9256 28.5398 89.2333 29.2888C88.549 30.029 87.7876 30.5345 86.9491 30.8052C86.1106 31.0759 85.2712 31.1089 84.4309 30.9042C83.5988 30.6906 82.8435 30.2702 82.165 29.643ZM82.9103 28.8367C83.3862 29.2766 83.9245 29.5781 84.5253 29.7413C85.1343 29.8957 85.7618 29.8711 86.4076 29.6674C87.0705 29.463 87.6951 29.0436 88.2816 28.4091C88.8681 27.7747 89.2375 27.1275 89.3899 26.4677C89.5505 25.799 89.5258 25.1716 89.316 24.5854C89.1143 23.9904 88.7755 23.4729 88.2997 23.0331C87.8238 22.5932 87.2814 22.2961 86.6724 22.1417C86.0716 21.9785 85.4441 22.0031 84.7901 22.2156C84.1531 22.4275 83.5413 22.8506 82.9548 23.4851C82.3683 24.1195 81.9904 24.767 81.8211 25.4276C81.6687 26.0874 81.6889 26.7108 81.8818 27.2976C82.0916 27.8838 82.4345 28.3968 82.9103 28.8367Z" fill="black"/>
<path d="M102.263 34.8563L90.1532 40.4049L89.6284 39.2594L101.738 33.7109L102.263 34.8563Z" fill="black"/>
<path d="M102.529 48.3369L92.7935 49.6797L92.6214 48.4315L102.357 47.0887L102.529 48.3369ZM105.54 48.9574L102.914 45.5946L103.877 45.4618L106.664 48.8024L105.54 48.9574Z" fill="black"/>
<path d="M92.1147 61.2957C92.3705 60.1971 92.8312 59.3556 93.497 58.7714C94.1718 58.2015 94.957 57.9777 95.8526 58.0999L95.5588 59.3621C95.0075 59.2954 94.5108 59.4447 94.0684 59.8099C93.6351 60.1896 93.33 60.7592 93.1532 61.5189C92.9981 62.1851 93.0348 62.742 93.2633 63.1894C93.4891 63.6485 93.8358 63.9325 94.3033 64.0413C94.6305 64.1175 94.9238 64.0749 95.1832 63.9135C95.4425 63.7521 95.6687 63.5214 95.8618 63.2213C96.0638 62.9357 96.2988 62.5345 96.5669 62.0179C96.9199 61.3484 97.2416 60.8134 97.5319 60.4128C97.8223 60.0122 98.1854 59.6963 98.6212 59.4651C99.0659 59.2483 99.598 59.2119 100.217 59.3561C100.685 59.4649 101.085 59.7059 101.417 60.0789C101.749 60.4519 101.972 60.9227 102.086 61.4913C102.2 62.06 102.181 62.6716 102.029 63.3261C101.789 64.3546 101.333 65.1232 100.66 65.6319C99.999 66.1433 99.2072 66.3163 98.2847 66.1509L98.5703 64.9237C99.1395 65.0192 99.6412 64.9019 100.075 64.5717C100.518 64.2559 100.822 63.7474 100.985 63.0462C101.129 62.4267 101.1 61.8902 100.897 61.4365C100.695 60.9828 100.378 60.7056 99.9452 60.6049C99.5712 60.5179 99.2357 60.5568 98.9385 60.7218C98.6504 60.9011 98.3967 61.1439 98.1776 61.4502C97.9701 61.7592 97.7179 62.181 97.421 62.7156C97.0735 63.3617 96.7645 63.8688 96.4939 64.2371C96.2234 64.6053 95.8847 64.8961 95.4777 65.1094C95.0708 65.3227 94.5854 65.3699 94.0217 65.251C93.5074 65.1313 93.0784 64.8836 92.7347 64.5079C92.4026 64.1349 92.1781 63.6699 92.0614 63.1129C91.9446 62.556 91.9624 61.9502 92.1147 61.2957Z" fill="black"/>
<path d="M94.2109 78.0965L89.2578 74.5326C88.7707 74.1822 88.3681 74.033 88.0499 74.0849C87.7316 74.1368 87.4043 74.3965 87.0679 74.8641L86.3951 75.7992L85.5184 75.1684L86.3069 74.0726C86.8255 73.3518 87.3766 72.9352 87.9601 72.8228C88.5533 72.7174 89.2347 72.9416 90.0042 73.4953L94.9573 77.0591L95.7563 75.9487L96.6183 76.5689L95.8193 77.6794L97.821 79.1196L97.0746 80.157L95.0729 78.7167L93.496 80.9084L92.634 80.2881L94.2109 78.0965Z" fill="black"/>
<path d="M86.545 90.0403C86.7493 89.8928 86.9771 89.8394 87.2284 89.88C87.4797 89.9206 87.6826 90.0479 87.8371 90.262C87.9917 90.476 88.0451 90.7038 87.9975 90.9454C87.9569 91.1967 87.8344 91.3961 87.6301 91.5436C87.4258 91.6911 87.198 91.7445 86.9467 91.7039C86.7024 91.6731 86.503 91.5506 86.3485 91.3366C86.1939 91.1225 86.137 90.8898 86.1776 90.6385C86.2182 90.3872 86.3406 90.1878 86.545 90.0403ZM84.949 88.9058L79.1968 80.937L80.2185 80.1995L85.9707 88.1683L84.949 88.9058Z" fill="black"/>
<path d="M73.6696 89.8168C73.9024 90.8099 73.9064 91.721 73.6817 92.5502C73.4597 93.391 73.0448 94.0922 72.4369 94.6537C71.8317 95.227 71.0793 95.619 70.1797 95.8298C68.9997 96.1064 67.9615 96.0416 67.0651 95.6354C66.1571 95.232 65.4744 94.5539 65.0169 93.6012L66.3313 93.2931C66.6564 93.9441 67.1387 94.398 67.7782 94.6549C68.4087 94.9261 69.1271 94.9673 69.9332 94.7783C70.5758 94.6277 71.1199 94.3461 71.5655 93.9336C72.0111 93.521 72.3174 92.987 72.4842 92.3317C72.6421 91.6907 72.6225 90.9496 72.4253 90.1084C72.2282 89.2672 71.9151 88.5888 71.4861 88.0731C71.0454 87.5601 70.5338 87.2178 69.9513 87.0462C69.3688 86.8746 68.7562 86.8641 68.1136 87.0147C67.3075 87.2037 66.6808 87.5539 66.2338 88.0654C65.7778 88.5914 65.5501 89.224 65.5509 89.9633L64.2365 90.2714C64.2284 89.238 64.5401 88.333 65.1716 87.5564C65.803 86.7798 66.7029 86.2546 67.8713 85.9808C68.7709 85.7699 69.6178 85.7809 70.4119 86.0139C71.2087 86.2585 71.892 86.7023 72.4618 87.3452C73.0342 87.9999 73.4369 88.8237 73.6696 89.8168Z" fill="black"/>
<path d="M54.8431 92.0772C54.5628 93.0454 54.1273 93.8375 53.5366 94.4536C52.9311 95.0778 52.2316 95.4874 51.4381 95.6824C50.6297 95.8856 49.7932 95.8621 48.9287 95.6118C48.0297 95.3515 47.3175 94.9204 46.7921 94.3185C46.2553 93.7134 45.9362 93.0463 45.8349 92.3174L45.2342 94.3922L44.0239 94.0417L46.7572 84.6015L47.9675 84.9519L47.3617 87.044C47.8483 86.4852 48.4819 86.0878 49.2624 85.8515C50.028 85.6234 50.8603 85.6396 51.7594 85.8999C52.6124 86.1468 53.3263 86.5721 53.901 87.1758C54.4643 87.7762 54.8351 88.5019 55.0134 89.3531C55.1802 90.2009 55.1234 91.1089 54.8431 92.0772ZM46.6008 89.672C46.3806 90.4328 46.3426 91.1464 46.487 91.8128C46.6313 92.4792 46.9293 93.0465 47.3809 93.5146C47.8211 93.9793 48.3639 94.3051 49.0093 94.492C49.6779 94.6856 50.3207 94.7093 50.9377 94.5631C51.5546 94.4169 52.1022 94.1007 52.5803 93.6145C53.0435 93.1365 53.3886 92.5056 53.6155 91.7218C53.8391 90.9495 53.8862 90.226 53.7567 89.5514C53.6123 88.885 53.3201 88.3194 52.88 87.8546C52.4365 87.4014 51.8805 87.078 51.212 86.8845C50.5665 86.6976 49.9336 86.683 49.3133 86.8407C48.6814 86.995 48.1264 87.3153 47.6483 87.8016C47.1703 88.2878 46.8211 88.9113 46.6008 89.672Z" fill="black"/>
</svg>
